<?xml version="1.0" encoding="utf-8"?>
<!-- Generator: Adobe Illustrator 18.0.0, SVG Export Plug-In . SVG Version: 6.00 Build 0)  -->
<!DOCTYPE svg PUBLIC "-//W3C//DTD SVG 1.1//EN" "http://www.w3.org/Graphics/SVG/1.1/DTD/svg11.dtd">
<svg version="1.1" id="Layer_1" xmlns="http://www.w3.org/2000/svg" xmlns:xlink="http://www.w3.org/1999/xlink" x="0px" y="0px"
	 viewBox="0 0 53 106" enable-background="new 0 0 53 106" xml:space="preserve">
<g>
	<g>
		<path fill="#FFFFFF" d="M0,34h9V0H0V34z M22,24.9c0,5,4,9,9,9V0h-9V24.9z M11,0.2V34h9V9.2C20,4.2,16,0.2,11,0.2z M33,34h9V0h-9
			V34z M44,25v9h9v-9H44z M44,70h9V36h-9V70z M33,36.2V70h9V45.2C42,40.3,38,36.2,33,36.2z M11,45.2V70h9V36.2
			C15,36.2,11,40.3,11,45.2z M22,70h9V36h-9V70z M0,106h9V61H0V106z M44,106h9v-9h-9V106z M33,72.2V106c5,0,9-4.1,9-9V81.3
			C42,76.3,38,72.2,33,72.2z M22,81.3V97c0,5,4,9,9,9V72.2C26,72.2,22,76.3,22,81.3z M11,90.2V106h9v-6.7C20,94.3,16,90.2,11,90.2z
			 M11,88c5,0,9-4.1,9-9V72h-9V88z"/>
	</g>
</g>
</svg>
